<svg width="24" height="24" viewBox="0 0 24 24" fill="none" xmlns="http://www.w3.org/2000/svg">
<circle cx="12" cy="12" r="12" fill="#ECECEC"/>
<path d="M16.1378 7.44826C15.7171 7.44826 15.3309 7.20688 15.1378 6.83446L14.6412 5.83446C14.324 5.20688 13.4964 4.68964 12.7929 4.68964H11.2136C10.5033 4.68964 9.67571 5.20688 9.35846 5.83446L8.86191 6.83446C8.66881 7.20688 8.2826 7.44826 7.86191 7.44826C6.36536 7.44826 5.17915 8.71033 5.27571 10.2L5.63433 15.8965C5.71709 17.3172 6.4826 18.4827 8.38605 18.4827H15.6136C17.5171 18.4827 18.2757 17.3172 18.3654 15.8965L18.724 10.2C18.8205 8.71033 17.6343 7.44826 16.1378 7.44826ZM10.9654 8.31033H13.0343C13.3171 8.31033 13.5516 8.54481 13.5516 8.82757C13.5516 9.11033 13.3171 9.34481 13.0343 9.34481H10.9654C10.6826 9.34481 10.4481 9.11033 10.4481 8.82757C10.4481 8.54481 10.6826 8.31033 10.9654 8.31033ZM11.9998 15.8069C10.7171 15.8069 9.66881 14.7655 9.66881 13.4758C9.66881 12.1862 10.7102 11.1448 11.9998 11.1448C13.2895 11.1448 14.3309 12.1862 14.3309 13.4758C14.3309 14.7655 13.2826 15.8069 11.9998 15.8069Z" fill="black"/>
</svg>
