<svg width="68" height="67" viewBox="0 0 68 67" fill="none" xmlns="http://www.w3.org/2000/svg">
<path d="M34 67C52.5015 67 67.5 52.0015 67.5 33.5C67.5 14.9985 52.5015 0 34 0C15.4985 0 0.5 14.9985 0.5 33.5C0.5 52.0015 15.4985 67 34 67Z" fill="#FE451A"/>
<path d="M47.3999 30.9874H36.5124V20.0999C36.5124 18.7264 35.3734 17.5874 33.9999 17.5874C32.6264 17.5874 31.4874 18.7264 31.4874 20.0999V30.9874H20.5999C19.2264 30.9874 18.0874 32.1264 18.0874 33.4999C18.0874 34.8734 19.2264 36.0124 20.5999 36.0124H31.4874V46.8999C31.4874 48.2734 32.6264 49.4124 33.9999 49.4124C35.3734 49.4124 36.5124 48.2734 36.5124 46.8999V36.0124H47.3999C48.7734 36.0124 49.9124 34.8734 49.9124 33.4999C49.9124 32.1264 48.7734 30.9874 47.3999 30.9874Z" fill="white"/>
</svg>
