<svg width="20" height="20" viewBox="0 0 20 20" fill="none" xmlns="http://www.w3.org/2000/svg">
<path d="M9.16669 1.66669H7.50002C3.33335 1.66669 1.66669 3.33335 1.66669 7.50002V12.5C1.66669 16.6667 3.33335 18.3334 7.50002 18.3334H12.5C16.6667 18.3334 18.3334 16.6667 18.3334 12.5V10.8334" stroke="white" stroke-width="1.5" stroke-linecap="round" stroke-linejoin="round"/>
<path d="M13.3667 2.51669L6.80002 9.08336C6.55002 9.33336 6.30002 9.82503 6.25002 10.1834L5.89169 12.6917C5.75835 13.6 6.40002 14.2334 7.30835 14.1084L9.81669 13.75C10.1667 13.7 10.6584 13.45 10.9167 13.2L17.4834 6.63336C18.6167 5.50003 19.15 4.18336 17.4834 2.51669C15.8167 0.850027 14.5 1.38336 13.3667 2.51669Z" stroke="white" stroke-width="1.5" stroke-miterlimit="10" stroke-linecap="round" stroke-linejoin="round"/>
<path d="M12.425 3.45831C12.9833 5.44998 14.5417 7.00831 16.5417 7.57498" stroke="white" stroke-width="1.5" stroke-miterlimit="10" stroke-linecap="round" stroke-linejoin="round"/>
</svg>
