<svg width="335" height="346" viewBox="0 0 335 346" fill="none" xmlns="http://www.w3.org/2000/svg">
<ellipse cx="70.1169" cy="32.8187" rx="23.1707" ry="25" transform="rotate(-27.1489 70.1169 32.8187)" fill="black"/>
<path d="M70.7536 185.321C77.9826 183.018 89.6106 176.607 89.1389 163.378C89.1054 162.441 90.2549 161.819 90.9616 162.436C99.7751 170.131 116.424 185.26 110.965 215.142C104.344 251.383 51.0373 279.537 26.7174 274.949C3.68752 270.604 -5.5244 245.984 9.50847 223.131C25.3651 199.025 61.1071 188.395 70.7536 185.321Z" fill="black"/>
<path d="M259.24 93.5376C251.74 100.038 225.074 123.371 209.24 134.538L310.24 172.038C308.74 136.037 297.74 115.037 289.74 102.036C279.427 85.2762 267.103 86.7235 259.24 93.5376Z" fill="black"/>
<path d="M330.9 206.541C336.444 233.249 323.941 261.389 298.569 285.341C273.225 309.267 235.269 328.757 190.687 338.01C146.106 347.264 103.528 344.489 70.7551 332.626C37.947 320.749 15.278 299.91 9.73443 273.202C4.1909 246.493 16.6939 218.354 42.0654 194.401C67.4095 170.475 105.366 150.985 149.948 141.732C194.529 132.479 237.107 135.253 269.88 147.116C302.688 158.993 325.357 179.832 330.9 206.541Z" fill="white" stroke="black" stroke-width="4"/>
<path d="M199.24 98.0371C199.24 139.987 164.79 174.037 122.24 174.037C79.6905 174.037 45.2405 139.987 45.2405 98.0371C45.2405 56.0874 79.6905 22.0371 122.24 22.0371C164.79 22.0371 199.24 56.0874 199.24 98.0371Z" fill="white" stroke="black" stroke-width="4"/>
<path fill-rule="evenodd" clip-rule="evenodd" d="M159.922 83.6882C168.304 85.6588 177.292 83.8346 184.086 77.9475C195.617 67.9568 196.465 50.0482 185.98 37.9475C175.496 25.8468 157.649 24.1364 146.118 34.1271C139.747 39.6477 136.637 47.5859 136.899 55.6258C144.552 54.4412 151.98 56.5589 156.74 62.0527C161.732 67.8144 162.631 75.9516 159.922 83.6882Z" fill="black"/>
<ellipse cx="69.9657" cy="108.276" rx="13.0766" ry="15.7685" transform="rotate(26.4086 69.9657 108.276)" fill="black"/>
<path d="M252.74 210.537C259.86 207.914 271.191 200.992 270.13 187.797C270.055 186.862 271.175 186.189 271.909 186.774C281.056 194.069 298.363 208.442 294.24 238.537C289.24 275.037 237.241 305.537 212.74 302.037C189.54 298.723 179.24 274.537 193.24 251.037C208.007 226.249 243.24 214.037 252.74 210.537Z" fill="black"/>
<path d="M27.6378 124.823C30.5384 119.692 40.5939 110.025 57.6109 112.409C78.882 115.388 126.742 118.367 127.226 128.795C127.709 139.223 116.271 153.025 102.087 158.092C90.968 162.065 72.5974 166.037 63.8955 166.037C54.0353 166.037 32.9556 165.044 35.3728 155.113C37.3065 147.168 43.2689 142.864 46.0084 141.706C37.3065 139.719 21.4498 133.562 27.6378 124.823Z" fill="#F55F15"/>
<path d="M127.226 128.795C126.742 118.367 78.882 115.388 57.6109 112.409C40.5939 110.025 30.5384 119.692 27.6378 124.823C21.4498 133.562 37.3065 139.719 46.0084 141.706M127.226 128.795C127.709 139.223 116.271 153.025 102.087 158.092C90.968 162.065 72.5974 166.037 63.8955 166.037C54.0353 166.037 32.9556 165.044 35.3728 155.113C37.3065 147.168 43.2689 142.864 46.0084 141.706M127.226 128.795C113.742 137.858 98.2724 137.858 89.5705 137.858M46.0084 141.706C45.5602 137.029 46.587 127.9 54.2797 128.795C63.8955 129.913 77.2971 137.858 89.5705 137.858M46.0084 141.706C45.3991 143.237 45.5235 146.3 50.8957 146.3C57.6109 146.3 68.2993 144.063 76.5178 141.706C83.0925 139.819 87.9591 138.355 89.5705 137.858" stroke="black" stroke-width="3"/>
<ellipse cx="57.1593" cy="84.8481" rx="10.772" ry="16.8234" transform="rotate(25.2487 57.1593 84.8481)" fill="black"/>
<ellipse cx="55.1089" cy="83.9332" rx="7" ry="11" transform="rotate(23.9965 55.1089 83.9332)" fill="white"/>
<ellipse cx="54.41" cy="83.5441" rx="4.61764" ry="7.25628" transform="rotate(23.9965 54.41 83.5441)" fill="black"/>
<ellipse cx="16.2594" cy="20.3537" rx="16.2594" ry="20.3537" transform="matrix(0.890558 -0.454871 0.532335 0.846534 83.2404 83.8291)" fill="black"/>
<ellipse cx="12.0541" cy="13.7031" rx="12.0541" ry="13.7031" transform="matrix(0.943807 -0.330496 0.395896 0.918296 89.2201 83.8564)" fill="white"/>
<ellipse cx="8.12884" cy="9.60309" rx="8.12884" ry="9.60309" transform="matrix(0.999994 0.00357114 -0.00439664 0.99999 95.4869 82.022)" fill="black"/>
</svg>
