<svg width="32" height="32" viewBox="0 0 32 32" fill="none" xmlns="http://www.w3.org/2000/svg">
<path id="Vector" d="M18.7642 2.29175L21.5799 7.92312C21.9639 8.70704 22.9878 9.45895 23.8517 9.60294L28.9551 10.4508C32.2187 10.9948 32.9866 13.3625 30.6349 15.6983L26.6673 19.6658C25.9954 20.3378 25.6275 21.6336 25.8354 22.5615L26.9713 27.473C27.8672 31.3605 25.8034 32.8644 22.3638 30.8326L17.5803 28.0009C16.7164 27.489 15.2926 27.489 14.4127 28.0009L9.62923 30.8326C6.20561 32.8644 4.12584 31.3445 5.02174 27.473L6.15761 22.5615C6.36559 21.6336 5.99763 20.3378 5.3257 19.6658L1.35814 15.6983C-0.9776 13.3625 -0.225683 10.9948 3.03796 10.4508L8.14139 9.60294C8.9893 9.45895 10.0132 8.70704 10.3971 7.92312L13.2128 2.29175C14.7487 -0.763915 17.2444 -0.763915 18.7642 2.29175Z" fill="#FE451A"/>
</svg>
