<svg width="24" height="24" viewBox="0 0 24 24" fill="none" xmlns="http://www.w3.org/2000/svg">
<g clip-path="url(#clip0_428_541)">
<circle cx="12" cy="12" r="12" fill="#ABABAB"/>
<mask id="mask0_428_541" style="mask-type:alpha" maskUnits="userSpaceOnUse" x="0" y="0" width="24" height="24">
<circle cx="12" cy="12" r="12" fill="#D9D9D9"/>
</mask>
<g mask="url(#mask0_428_541)">
<path d="M11.9999 14.1819C14.5103 14.1819 16.5454 12.1468 16.5454 9.6364C16.5454 7.12601 14.5103 5.09094 11.9999 5.09094C9.48954 5.09094 7.45447 7.12601 7.45447 9.6364C7.45447 12.1468 9.48954 14.1819 11.9999 14.1819Z" fill="black"/>
<path d="M12 15.3636C7.44542 15.3636 3.73633 18.4182 3.73633 22.1818C3.73633 22.4364 3.93633 24.5455 4.19087 24.5455H19.8091C20.0636 24.5455 20.2636 22.4364 20.2636 22.1818C20.2636 18.4182 16.5545 15.3636 12 15.3636Z" fill="black"/>
</g>
</g>
<defs>
<clipPath id="clip0_428_541">
<rect width="24" height="24" fill="white"/>
</clipPath>
</defs>
</svg>
