<svg width="261" height="266" viewBox="0 0 261 266" fill="none" xmlns="http://www.w3.org/2000/svg">
<ellipse cx="56.2972" cy="28.3556" rx="16.4872" ry="17.7888" transform="rotate(-110.302 56.2972 28.3556)" fill="black"/>
<path d="M41.9516 121.366C37.0546 119.495 29.3666 114.706 29.7197 105.842C29.757 104.904 28.62 104.212 27.8819 104.791C21.181 110.05 9.59274 120.158 12.1853 140.934C15.4312 166.947 52.1688 189.091 69.6306 186.81C86.1661 184.65 93.7007 167.53 83.9403 150.69C73.645 132.928 48.681 123.938 41.9516 121.366Z" fill="black"/>
<path d="M193.713 66.557C188.377 71.1821 169.402 87.7852 158.136 95.7309L230.003 122.414C228.935 96.7972 221.108 81.8551 215.416 72.6041C208.078 60.6786 199.308 61.7083 193.713 66.557Z" fill="black"/>
<path d="M244.138 147.082C248.027 165.817 239.274 185.649 221.302 202.616C203.358 219.556 176.452 233.381 144.817 239.947C113.182 246.514 82.9962 244.538 59.7925 236.138C36.5534 227.726 20.6302 213.015 16.7416 194.28C12.8529 175.545 21.6064 155.713 39.5779 138.746C57.5221 121.806 84.4284 107.981 116.063 101.415C147.698 94.8486 177.884 96.824 201.087 105.224C224.327 113.636 240.25 128.347 244.138 147.082Z" fill="white" stroke="black" stroke-width="4"/>
<path d="M150.443 69.7586C150.443 99.2825 126.196 123.26 96.2307 123.26C66.2658 123.26 42.0181 99.2825 42.0181 69.7586C42.0181 40.2347 66.2658 16.2574 96.2307 16.2574C126.196 16.2574 150.443 40.2347 150.443 69.7586Z" fill="white" stroke="black" stroke-width="4"/>
<path fill-rule="evenodd" clip-rule="evenodd" d="M123.079 59.5567C129.033 60.9452 135.412 59.644 140.237 55.4634C148.442 48.3545 149.045 35.6116 141.585 27.0013C134.125 18.3911 121.426 17.174 113.221 24.2829C108.542 28.337 106.335 34.2233 106.686 40.1306C112.069 39.3479 117.275 40.8643 120.625 44.7305C124.055 48.6893 124.769 54.2242 123.079 59.5567Z" fill="black"/>
<ellipse cx="59.0345" cy="77.0443" rx="9.30468" ry="11.2201" transform="rotate(26.4086 59.0345 77.0443)" fill="black"/>
<path d="M30.5255 72.1317C32.1406 69.6808 39.1181 67.3639 43.0589 67C41.9566 70.7149 38.2276 78.0687 35.1279 78.933C31.2532 80.0134 27.9902 75.9789 30.5255 72.1317Z" fill="#ABABAB"/>
<path d="M17.7168 84.543C19.5283 82.7345 25.8959 81.9858 29.3258 82.3698C27.7295 85.3482 23.2483 90.9714 20.4486 91.1631C16.9489 91.4028 14.8733 87.3819 17.7168 84.543Z" fill="#ABABAB"/>
<path d="M28.6276 88.683C30.6916 85.032 37.8466 78.1538 49.955 79.8498C65.0906 81.9698 104.755 89.7937 100 95.5C95 101.5 84.4975 106.5 77.5 109C69.5882 111.827 62 113.4 54 115C47.1202 116.376 32.4115 117.303 34.1315 110.236C35.5074 104.583 39.75 101.521 41.6993 100.696C35.5074 99.2829 24.2246 94.9017 28.6276 88.683Z" fill="#FE451A"/>
<path d="M100 95.5C104.755 89.7937 65.0906 81.9698 49.955 79.8498C37.8466 78.1538 30.6916 85.032 28.6276 88.683C24.2246 94.9017 35.5074 99.2829 41.6993 100.696M100 95.5C95 101.5 84.4975 106.5 77.5 109C69.5882 111.827 62 113.4 54 115C47.1202 116.376 32.4115 117.303 34.1315 110.236C35.5074 104.583 39.75 101.521 41.6993 100.696M100 95.5C93.5691 94.6961 86.851 93.6023 81 92.6077M41.6993 100.696C41.3804 97.3688 43.0002 92.8171 48 90.5C53.4153 87.9904 59.8665 89.1845 68.5 90.5C71.5166 90.9596 75.9331 91.7465 81 92.6077M41.6993 100.696C41.2657 101.786 43.3386 102.598 47 101.5C52 100 51.5 100 56.5 98C61 96.0718 72.2 92.2939 81 92.6077" stroke="black" stroke-width="3"/>
<ellipse cx="49.9223" cy="60.3739" rx="7.66485" ry="11.9707" transform="rotate(25.2487 49.9223 60.3739)" fill="black"/>
<ellipse cx="48.4632" cy="59.7228" rx="4.98087" ry="7.82708" transform="rotate(23.9965 48.4632 59.7228)" fill="white"/>
<ellipse cx="11.5694" cy="14.4827" rx="11.5694" ry="14.4827" transform="matrix(0.890558 -0.454871 0.532335 0.846534 68.4802 59.6488)" fill="black"/>
<ellipse cx="8.57714" cy="9.7505" rx="8.57714" ry="9.7505" transform="matrix(0.943807 -0.330496 0.395896 0.918296 72.7351 59.6683)" fill="white"/>
<path d="M87.2083 60L79.4909 66.585C78.8698 67.115 79.1113 68.1258 79.905 68.3177L91 71" stroke="black" stroke-width="4"/>
<path d="M46.3333 56L50.5736 59.7414C51.1775 60.2743 50.9359 61.266 50.1545 61.4614L44 63" stroke="black" stroke-width="4"/>
<path d="M105.685 88.2021C101.978 86.4987 97.3284 77.4006 96 72.0635C101.335 72.7966 112.221 76.3731 114.06 80.4496C116.359 85.5453 111.503 90.876 105.685 88.2021Z" fill="#ABABAB"/>
<path d="M131.41 81.45C128.42 82.0358 121.63 78.5523 118.495 75.8979C122.048 74.0132 130.207 71.4281 133.101 73.0956C136.718 75.1799 136.103 80.5305 131.41 81.45Z" fill="#ABABAB"/>
<path d="M136.511 97.459C132.481 96.8246 125.538 89.3287 122.812 84.5518C128.146 83.8106 139.594 84.3006 142.47 87.7255C146.064 92.0067 142.836 98.4548 136.511 97.459Z" fill="#ABABAB"/>
<path d="M161.344 88.3636C157.373 89.296 148.115 84.9727 143.789 81.577C148.449 78.8785 159.236 75.0142 163.192 77.1014C168.135 79.7105 167.578 86.9 161.344 88.3636Z" fill="#ABABAB"/>
<path d="M143.974 121.145C139.055 119.332 131.31 114.635 131.556 105.768C131.582 104.83 130.437 104.151 129.706 104.739C123.069 110.078 111.603 120.324 114.444 141.068C118.002 167.04 155.003 188.742 172.436 186.252C188.944 183.893 196.273 166.684 186.311 149.962C175.803 132.325 150.733 123.635 143.974 121.145Z" fill="black"/>
</svg>
