<svg width="67" height="67" viewBox="0 0 67 67" fill="none" xmlns="http://www.w3.org/2000/svg">
<path d="M33.5 67C52.0015 67 67 52.0015 67 33.5C67 14.9985 52.0015 0 33.5 0C14.9985 0 0 14.9985 0 33.5C0 52.0015 14.9985 67 33.5 67Z" fill="#FE451A"/>
<path d="M42.051 21.3732L33.7537 29.6705L25.4564 21.3732C24.4096 20.3264 22.6736 20.3264 21.6268 21.3732C20.5801 22.4199 20.5801 24.156 21.6268 25.2027L29.9241 33.5L21.6268 41.7973C20.5801 42.844 20.5801 44.5801 21.6268 45.6268C22.6736 46.6736 24.4096 46.6736 25.4564 45.6268L33.7537 37.3295L42.051 45.6268C43.0977 46.6736 44.8338 46.6736 45.8805 45.6268C46.9272 44.5801 46.9272 42.844 45.8805 41.7973L37.5832 33.5L45.8805 25.2027C46.9272 24.156 46.9272 22.4199 45.8805 21.3732C44.8338 20.3264 43.0977 20.3264 42.051 21.3732Z" fill="white"/>
</svg>
