<svg width="20" height="21" viewBox="0 0 20 21" fill="none" xmlns="http://www.w3.org/2000/svg">
<path d="M1.7851 6.89963L8.31919 1.90297C9.02019 1.36692 9.98967 1.35365 10.7051 1.87033L17.671 6.90126C18.1916 7.27727 18.5 7.88041 18.5 8.52262V17.5C18.5 18.6046 17.6046 19.5 16.5 19.5H14.5C13.3954 19.5 12.5 18.6046 12.5 17.5V13.5C12.5 12.3954 11.6046 11.5 10.5 11.5H8.5C7.39543 11.5 6.5 12.3954 6.5 13.5V17.5C6.5 18.6046 5.60457 19.5 4.5 19.5H3C1.89543 19.5 1 18.6046 1 17.5V8.48835C1 7.8654 1.29026 7.27804 1.7851 6.89963Z" stroke="black" stroke-width="1.25"/>
</svg>
