<svg width="19" height="20" viewBox="0 0 19 20" fill="none" xmlns="http://www.w3.org/2000/svg">
<path d="M1.2851 6.39963L7.81919 1.40297C8.52019 0.866915 9.48967 0.853651 10.2051 1.37033L17.171 6.40126C17.6916 6.77727 18 7.38041 18 8.02262V17C18 18.1046 17.1046 19 16 19H14C12.8954 19 12 18.1046 12 17V13C12 11.8954 11.1046 11 10 11H8C6.89543 11 6 11.8954 6 13V17C6 18.1046 5.10457 19 4 19H2.5C1.39543 19 0.5 18.1046 0.5 17V7.98835C0.5 7.3654 0.790262 6.77804 1.2851 6.39963Z" fill="black" stroke="black"/>
</svg>
